<?xml version="1.0" encoding="UTF-8" ?>
<!DOCTYPE svg PUBLIC "-//W3C//DTD SVG 1.1//EN" "http://www.w3.org/Graphics/SVG/1.1/DTD/svg11.dtd">
<svg width="45pt" height="45pt" viewBox="0 0 45 45" version="1.1" xmlns="http://www.w3.org/2000/svg">
<path fill="#384042" d=" M 0.00 0.00 L 45.00 0.00 L 45.00 45.00 L 0.00 45.00 L 0.00 0.00 Z" />
<path fill="#f2ba0f" d=" M 2.96 2.55 C 12.30 2.51 21.65 2.49 30.99 2.54 C 36.66 2.49 42.07 6.46 43.60 11.93 C 45.96 20.40 40.50 29.34 32.78 32.77 C 28.82 34.74 24.29 34.40 20.01 34.31 C 19.44 36.84 19.22 39.44 18.62 41.98 C 17.38 43.00 15.38 42.17 13.87 42.40 C 14.51 38.13 15.17 33.87 15.85 29.60 C 21.02 29.21 26.53 30.56 31.43 28.42 C 36.41 26.12 40.14 20.61 39.20 15.02 C 38.56 10.65 34.41 7.22 30.01 7.32 C 20.73 7.14 11.43 7.53 2.15 7.13 C 2.47 5.61 2.71 4.08 2.96 2.55 Z" />
<path fill="#98d023" d=" M 9.24 11.24 C 16.02 11.40 22.83 10.97 29.59 11.45 C 34.60 12.31 35.64 19.08 32.38 22.40 C 28.52 27.24 21.76 25.26 16.44 25.54 C 16.69 23.97 16.94 22.40 17.18 20.83 C 20.46 20.69 23.75 20.89 27.03 20.70 C 29.29 20.79 30.61 16.77 28.02 16.21 C 23.10 15.92 18.16 16.16 13.22 16.13 C 11.95 24.89 10.53 33.63 9.19 42.39 C 7.60 42.40 6.01 42.41 4.42 42.43 C 5.98 32.02 7.62 21.63 9.24 11.24 Z" />
</svg>
