<svg xmlns="http://www.w3.org/2000/svg" viewBox="0 0 1984 402" width="1984" height="402">
	<style>
		tspan { white-space:pre }
		.shp0 { fill: #ee2837 } 
		.shp1 { fill: #040606 } 
	</style>
	<g id="g10">
		<g id="g12">
			<g id="g14">
				<path id="path16" fill-rule="evenodd" class="shp0" d="M1961.67 0.56C1992.02 0.56 1982.09 29.26 1982.09 29.26L1930.53 178.28C1926.63 111.35 1906.99 91.62 1829.06 91.62C1740.49 91.62 1727.96 125.88 1727.96 204.44C1727.96 289.25 1745.09 315.99 1829.06 315.99C1850.31 315.99 1868.85 315.53 1884.19 312.32L1863.12 373.2C1853.19 401.88 1822.85 401.88 1822.85 401.88L1660.24 401.88C1689.35 389.97 1699.96 364.15 1699.96 313.07L1699.96 94.14L1647.33 94.14L1649.4 127.13L1647.72 127.13C1634.35 98.32 1610.13 91.62 1579.21 91.62C1497.75 91.62 1495.24 143.01 1495.24 210.28C1495.24 274.63 1504 315.99 1579.21 315.99C1605.94 315.99 1633.95 310.97 1647.72 282.14L1648.98 282.14L1648.98 323.93C1648.98 361.54 1639.39 370.71 1594.67 370.71C1565.01 370.71 1553.73 366.14 1553.73 336.05L1504.42 336.05C1502.52 373.35 1514.7 392.37 1535.36 401.88L1000.83 401.88C970.46 401.88 980.39 373.2 980.39 373.2L1031.53 225.35C1034.64 293.61 1055.56 315.99 1132.15 315.99C1194.83 315.99 1234.51 312.66 1234.51 243.71L1181.87 243.71C1181.87 276.3 1161.39 275.87 1132.15 275.87C1084.94 275.87 1083.69 260.84 1083.69 213.64L1234.51 213.64C1234.51 117.96 1222.41 91.62 1132.15 91.62C1107.69 91.62 1089.17 94.34 1074.97 99.81L1099.37 29.25C1109.29 0.56 1139.66 0.56 1139.66 0.56L1414.6 0.56L1414.6 123.38L1412.5 123.38C1401.22 96.64 1373.23 91.62 1346.5 91.62C1271.28 91.62 1262.5 132.99 1262.5 197.33C1262.5 264.61 1265.02 315.99 1346.5 315.99C1377.41 315.99 1401.65 309.3 1415.01 280.48L1416.67 280.48L1414.6 313.48L1467.24 313.48L1467.24 0.56C1467.24 0.56 1961.67 0.56 1961.67 0.56ZM1181.87 180.2L1083.69 180.2C1083.69 141.35 1086.6 131.73 1132.15 131.73C1175.19 131.73 1181.87 135.08 1181.87 180.2ZM1361.95 275.87C1313.9 275.87 1315.16 247.05 1315.16 197.33C1315.16 142.18 1325.6 131.73 1361.95 131.73C1407.48 131.73 1413.75 150.55 1413.75 197.33C1413.75 249.56 1415.85 275.87 1361.95 275.87ZM1594.67 275.87C1547.89 275.87 1547.89 247.05 1547.89 197.33C1547.89 142.18 1558.33 131.73 1594.67 131.73C1640.21 131.73 1647.33 150.55 1647.33 197.33C1647.33 249.56 1647.33 275.87 1594.67 275.87ZM1829.06 131.73C1872.1 131.73 1878.78 135.07 1878.78 180.2L1780.6 180.2C1780.6 141.33 1783.52 131.73 1829.06 131.73ZM1878.78 243.71C1878.78 276.3 1858.3 275.87 1829.06 275.87C1781.85 275.87 1780.6 260.84 1780.6 213.64L1918.32 213.64L1907.93 243.71C1907.93 243.71 1878.78 243.71 1878.78 243.71Z" />
			</g>
			<path id="path18" fill-rule="evenodd" class="shp1" d="M141.99 153.87C141.99 127.55 128.2 127.55 100.19 127.55C72.21 127.55 52.99 127.55 52.99 156.39C52.99 178.12 58.84 178.95 104.8 181.03C156.61 183.55 202.56 179.79 202.56 250.82C202.56 310.15 155.76 315.99 100.19 315.99C40.46 315.99 0.35 315.99 0.35 244.57L52.99 244.57C53.81 276.3 61.35 280.07 100.19 280.07C131.54 280.07 149.92 280.9 149.92 250.82C149.92 231.6 148.67 221.99 95.6 221.14C14.96 219.9 0.35 209.03 0.35 153.05C0.35 92.89 43.8 91.62 100.19 91.62C143.25 91.62 194.63 92.45 194.63 153.87L141.99 153.87ZM337.09 91.62C428.6 91.62 440.31 118.78 440.31 204.03C440.31 288.83 428.6 315.99 337.09 315.99C245.6 315.99 233.91 288.83 233.91 204.03C233.91 118.78 245.6 91.62 337.09 91.62ZM286.53 204.45C286.53 262.92 290.31 275.87 337.09 275.87C383.88 275.87 387.65 262.92 387.65 204.45C387.65 145.11 383.88 131.73 337.09 131.73C290.31 131.73 286.53 145.11 286.53 204.45ZM537.64 313.48L485.01 313.48L485.01 0.12L537.64 0.12L537.64 313.48ZM733.18 285.92L731.93 285.92C721.48 315.16 689.3 315.99 663.83 315.99C614.1 315.99 581.94 305.56 581.94 246.23C581.94 193.57 609.5 178.95 663.83 178.95C690.57 178.95 716.89 179.37 729.42 204.03L731.09 204.03L731.09 175.61C731.09 140.09 728.17 127.55 684.3 127.55C661.31 127.55 642.93 129.64 642.93 158.06L590.28 158.06C590.28 94.13 634.15 91.62 684.3 91.62C754.49 91.62 783.73 102.5 783.73 176.03L783.73 313.48L731.09 313.48L733.18 285.92ZM634.57 246.23C634.57 277.14 647.12 280.07 682.61 280.07C710.63 280.07 731.09 277.56 731.09 246.23C731.09 215.72 708.53 214.88 682.61 214.88C655.89 214.88 634.57 214.88 634.57 246.23ZM832.19 94.13L883.59 94.13L882.33 122.97L884.42 122.97C894.86 98.73 917.42 91.62 942.91 91.62C989.3 91.62 1000.57 119.2 1000.57 160.56L1000.57 178.12L951.28 178.12L951.28 166.82C951.28 144.69 949.19 131.73 924.53 131.73C893.19 131.73 884 149.7 884.83 178.12L884.83 313.48L832.19 313.48C832.19 313.48 832.19 94.13 832.19 94.13Z" />
		</g>
	</g>
</svg>